<?xml version="1.0" encoding="iso-8859-1"?>
<!-- Generator: Adobe Illustrator 19.0.0, SVG Export Plug-In . SVG Version: 6.00 Build 0)  -->
<svg version="1.1" id="Layer_1" xmlns="http://www.w3.org/2000/svg" xmlns:xlink="http://www.w3.org/1999/xlink" x="0px" y="0px"
	 viewBox="0 0 512 512" style="enable-background:new 0 0 512 512;" xml:space="preserve">
<polygon style="fill:#E6E6E6;" points="503.104,106.43 503.104,243.653 482.249,243.653 482.249,243.641 33.475,243.641 
	33.475,243.653 16.599,243.653 16.599,113.078 16.611,113.066 "/>
<g>
	<path style="fill:#4288BC;" d="M153.376,81.08c0,8.919-1.623,17.465-4.58,25.351c-10.265,27.334-36.626,46.771-67.541,46.771
		c-28.344,0-52.865-16.347-64.645-40.135c-4.784-9.64-7.477-20.494-7.477-31.986c0-39.835,32.286-72.121,72.121-72.121
		S153.376,41.245,153.376,81.08z"/>
	<rect x="33.475" y="243.649" style="fill:#4288BC;" width="448.774" height="258.086"/>
</g>
<rect x="33.475" y="239.442" style="fill:#3679A3;" width="448.774" height="31.252"/>
<rect x="347.251" y="302.837" style="fill:#808080;" width="106.102" height="82.666"/>
<rect x="62.384" y="302.837" style="fill:#2BA5F7;" width="106.102" height="82.663"/>
<polygon style="fill:#8FD3F9;" points="168.486,302.84 168.486,385.503 113.71,385.503 132.305,302.84 "/>
<rect x="200.316" y="302.837" style="fill:#E6E6E6;" width="115.081" height="198.898"/>
<polygon style="fill:#FCCC8B;" points="81.256,40.352 94.786,62.772 120.29,68.711 103.148,88.507 105.381,114.597 81.256,104.412 
	57.133,114.597 59.365,88.507 42.223,68.711 67.728,62.772 "/>
<path d="M502.985,98.067H160.607c1.095-5.349,1.666-10.807,1.666-16.335c0-21.675-8.439-42.05-23.764-57.374
	c-3.521-3.521-9.229-3.52-12.749,0c-3.521,3.521-3.521,9.229,0,12.75c11.919,11.918,18.482,27.765,18.482,44.624
	c0,7.633-1.347,15.097-4.004,22.181c-9.193,24.478-32.945,40.925-59.102,40.925c-24.163,0-45.838-13.458-56.569-35.128
	c-4.337-8.74-6.537-18.153-6.537-27.978c0-34.796,28.309-63.106,63.106-63.106c8.524,0,16.789,1.667,24.563,4.955
	c4.588,1.94,9.876-0.206,11.815-4.791s-0.206-9.876-4.791-11.815c-10.009-4.232-20.637-6.379-31.587-6.379
	C36.397,0.595,0,36.992,0,81.731c0,11.869,2.533,23.267,7.465,33.931v128.642c0,4.979,4.036,9.015,9.015,9.015h7.861v249.07
	c0,4.979,4.036,9.015,9.015,9.015H482.13c4.979,0,9.015-4.036,9.015-9.015v-44.126c0-4.979-4.036-9.015-9.015-9.015
	s-9.015,4.036-9.015,9.015v35.111H324.304V303.491c0-4.979-4.036-9.015-9.015-9.015H200.202c-4.979,0-9.015,4.036-9.015,9.015
	v189.884H42.371V253.319h430.744v176.096c0,4.979,4.036,9.015,9.015,9.015s9.015-4.036,9.015-9.015V253.319h11.84
	c4.979,0,9.015-4.036,9.015-9.015V107.082C512,102.103,507.964,98.067,502.985,98.067z M209.217,312.506h97.056v180.869h-97.056
	V312.506z M493.97,235.289H25.495v-94.426c14.761,13.952,34.455,22.004,55.641,22.004c31.499,0,60.282-18.553,73.515-46.771H493.97
	V235.289z"/>
<path d="M229.185,209.97c15.178,0,27.526-12.348,27.526-27.527v-13.508c0-15.178-12.348-27.527-27.526-27.527
	c-15.178,0-27.527,12.348-27.527,27.527v13.508C201.659,197.62,214.007,209.97,229.185,209.97z M219.689,168.934
	c0-5.236,4.26-9.497,9.497-9.497c5.237,0,9.496,4.26,9.496,9.497v13.508c0,5.236-4.26,9.497-9.496,9.497s-9.497-4.26-9.497-9.497
	V168.934z"/>
<path d="M390.716,209.97c11.086,0,21.041-6.598,25.36-16.809c1.939-4.586-0.206-9.876-4.791-11.815
	c-4.584-1.94-9.875,0.206-11.816,4.791c-1.49,3.526-4.927,5.803-8.754,5.803c-5.236,0-9.497-4.26-9.497-9.497v-13.508
	c0-5.236,4.26-9.497,9.497-9.497c3.16,0,6.106,1.567,7.88,4.194c2.789,4.125,8.392,5.211,12.517,2.423
	c4.127-2.787,5.211-8.391,2.424-12.517c-5.131-7.596-13.662-12.131-22.82-12.131c-15.178,0-27.527,12.348-27.527,27.527v13.508
	C363.189,197.62,375.537,209.97,390.716,209.97z"/>
<path d="M280.472,209.97h21.657c4.979,0,9.015-4.036,9.015-9.015s-4.036-9.015-9.015-9.015h-12.642v-41.517
	c0-4.979-4.036-9.015-9.015-9.015s-9.015,4.036-9.015,9.015v50.532C271.457,205.933,275.493,209.97,280.472,209.97z"/>
<path d="M332.987,209.97c4.979,0,9.015-4.036,9.015-9.015v-50.532c0-4.979-4.036-9.015-9.015-9.015s-9.015,4.036-9.015,9.015v50.532
	C323.972,205.933,328.008,209.97,332.987,209.97z"/>
<path d="M439.185,209.97h21.657c4.979,0,9.015-4.036,9.015-9.015s-4.036-9.015-9.015-9.015H448.2v-6.874h8.311
	c4.979,0,9.015-4.036,9.015-9.015s-4.036-9.015-9.015-9.015H448.2v-7.597h12.642c4.979,0,9.015-4.036,9.015-9.015
	s-4.036-9.015-9.015-9.015h-21.657c-4.979,0-9.015,4.036-9.015,9.015v50.532C430.17,205.933,434.205,209.97,439.185,209.97z"/>
<path d="M146.397,150.423v50.532c0,4.979,4.036,9.015,9.015,9.015s9.015-4.036,9.015-9.015v-14.085h3.618
	c12.533,0,22.73-10.197,22.73-22.731c0-12.535-10.197-22.73-22.73-22.73h-12.633C150.434,141.408,146.397,145.444,146.397,150.423z
	 M164.428,159.438h3.618c2.592,0,4.7,2.108,4.7,4.701c0,2.593-2.108,4.7-4.7,4.7h-3.618V159.438z"/>
<path d="M347.127,294.475c-4.979,0-9.015,4.036-9.015,9.015v82.665c0,4.979,4.036,9.015,9.015,9.015h106.101
	c4.979,0,9.015-4.036,9.015-9.015v-82.665c0-4.979-4.036-9.015-9.015-9.015H347.127L347.127,294.475z M444.213,335.808h-15.789
	v-23.302h15.789V335.808z M389.96,335.808v-23.302h20.434v23.302H389.96z M410.395,353.838v23.302H389.96v-23.302H410.395z
	 M371.93,312.506v23.302h-15.787v-23.302H371.93z M356.143,353.838h15.787v23.302h-15.787V353.838z M428.425,377.142v-23.304h15.789
	v23.302h-15.789V377.142z"/>
<path d="M62.263,294.475c-4.979,0-9.015,4.036-9.015,9.015v82.665c0,4.979,4.036,9.015,9.015,9.015h106.101
	c4.979,0,9.015-4.036,9.015-9.015v-82.665c0-4.979-4.036-9.015-9.015-9.015H62.263L62.263,294.475z M159.349,377.142H71.279v-64.635
	h88.071V377.142z"/>
<path d="M245.941,381.528h-16.23c-4.979,0-9.015,4.036-9.015,9.015s4.036,9.015,9.015,9.015h16.23c4.979,0,9.015-4.036,9.015-9.015
	S250.921,381.528,245.941,381.528z"/>
<path d="M128.745,66.577c-0.976-3.004-3.453-5.278-6.529-5.994l-21.796-5.076l-11.563-19.16c-1.632-2.705-4.56-4.357-7.718-4.357
	c-3.159,0-6.087,1.653-7.718,4.357l-11.563,19.16L40.06,60.583c-3.076,0.716-5.553,2.991-6.529,5.994s-0.309,6.3,1.759,8.687
	l14.65,16.918l-1.908,22.297c-0.269,3.147,1.127,6.205,3.683,8.062c1.565,1.137,3.425,1.721,5.3,1.721
	c1.185,0,2.379-0.234,3.506-0.71l20.617-8.705l20.618,8.705c2.91,1.228,6.25,0.845,8.806-1.012c2.554-1.857,3.952-4.915,3.683-8.062
	l-1.909-22.296l14.65-16.917C129.054,72.877,129.721,69.581,128.745,66.577z M96.213,83.257c-1.593,1.84-2.375,4.246-2.167,6.67
	l0.959,11.206l-10.363-4.375c-1.12-0.474-2.314-0.71-3.506-0.71c-1.192,0-2.386,0.237-3.506,0.71l-10.361,4.374l0.959-11.206
	c0.208-2.424-0.575-4.831-2.167-6.67l-7.362-8.502l10.954-2.551c2.37-0.552,4.416-2.039,5.674-4.122l5.811-9.629l5.811,9.629
	c1.257,2.083,3.304,3.57,5.674,4.122l10.954,2.551L96.213,83.257z"/>
<g>
</g>
<g>
</g>
<g>
</g>
<g>
</g>
<g>
</g>
<g>
</g>
<g>
</g>
<g>
</g>
<g>
</g>
<g>
</g>
<g>
</g>
<g>
</g>
<g>
</g>
<g>
</g>
<g>
</g>
</svg>
